<svg width="56" height="56" viewBox="0 0 56 56" fill="none" xmlns="http://www.w3.org/2000/svg">
<path d="M40.0553 0C44.1412 0 48.0598 1.61949 50.9489 4.50221C53.8381 7.38493 55.4612 11.2947 55.4612 15.3715V39.9659C55.4612 44.0427 53.8381 47.9525 50.9489 50.8352C48.0598 53.7179 44.1412 55.3374 40.0553 55.3374H15.4059C11.32 55.3374 7.40145 53.7179 4.51228 50.8352C1.62312 47.9525 0 44.0427 0 39.9659V15.3715C0 11.2947 1.62312 7.38493 4.51228 4.50221C7.40145 1.61949 11.32 0 15.4059 0H40.0553ZM27.7306 15.3715C24.5686 15.3715 21.5275 16.5841 19.2364 18.7585C16.9453 20.933 15.5794 23.9028 15.4213 27.0539L15.4059 27.6687C15.4059 30.1009 16.1287 32.4784 17.483 34.5007C18.8372 36.5229 20.7621 38.0991 23.0141 39.0299C25.2662 39.9606 27.7443 40.2041 30.135 39.7296C32.5258 39.2551 34.7219 38.0839 36.4455 36.3642C38.1691 34.6444 39.343 32.4532 39.8185 30.0678C40.2941 27.6824 40.05 25.2098 39.1172 22.9628C38.1843 20.7158 36.6046 18.7952 34.5779 17.444C32.5511 16.0927 30.1682 15.3715 27.7306 15.3715ZM41.5959 10.7601C40.8412 10.7602 40.1128 11.0366 39.5489 11.537C38.9849 12.0373 38.6246 12.7268 38.5363 13.4747L38.5147 13.8651C38.5156 14.6487 38.8163 15.4024 39.3554 15.9721C39.8945 16.5419 40.6314 16.8848 41.4153 16.9307C42.1993 16.9766 42.9713 16.7221 43.5735 16.2192C44.1757 15.7163 44.5628 15.0029 44.6555 14.2248L44.6771 13.8344C44.6771 13.019 44.3525 12.237 43.7746 11.6605C43.1968 11.084 42.4131 10.7601 41.5959 10.7601Z" fill="#F8F7F7"/>
</svg>
