<svg width="56" height="56" viewBox="0 0 56 56" fill="none" xmlns="http://www.w3.org/2000/svg">
<path fill-rule="evenodd" clip-rule="evenodd" d="M10.0418 0C7.37858 0 4.8244 1.06008 2.94119 2.94704C1.05798 4.834 0 7.39326 0 10.0618V45.2782C0 47.9467 1.05798 50.506 2.94119 52.393C4.8244 54.2799 7.37858 55.34 10.0418 55.34H45.1883C47.8515 55.34 50.4057 54.2799 52.2889 52.393C54.1721 50.506 55.2301 47.9467 55.2301 45.2782V10.0618C55.2301 7.39326 54.1721 4.834 52.2889 2.94704C50.4057 1.06008 47.8515 0 45.1883 0H10.0418ZM28.4689 11.8005C28.4687 10.1457 29.8102 8.80409 31.465 8.80409C33.1197 8.80409 34.4314 10.1855 35.0275 11.7291C35.8924 13.9687 37.7063 15.9892 40.1811 16.8884C41.6849 17.4348 43.0218 18.6789 43.0218 20.2789V20.4268C43.0218 22.0257 41.311 23.2834 39.7359 23.0082C37.3915 22.5985 34.4611 24.5701 34.4611 26.95V36.2452C34.4611 40.534 31.077 46.5359 23.3372 46.5359C13.8828 46.5359 12.2109 37.9582 12.2109 35.3874C12.2109 33.054 13.4519 25.7716 21.5133 24.4468C22.9778 24.2061 24.1908 25.442 24.1908 26.9262C24.1908 28.6347 22.4858 29.9534 20.9839 30.7679C19.4147 31.6188 18.2008 33.2909 18.2008 35.3874C18.2008 39.6763 20.769 40.534 23.3372 40.534C25.9054 40.534 28.4711 37.9607 28.4711 35.3874L28.4689 11.8005Z" fill="#FFAAE6"/>
</svg>
