<svg width="35" height="43" viewBox="0 0 35 43" fill="none" xmlns="http://www.w3.org/2000/svg">
<path d="M5.85417 15.4986H28.9792C30.0014 15.4986 30.9817 15.9047 31.7045 16.6275C32.4273 17.3503 32.8333 18.3306 32.8333 19.3528V32.8361C32.8322 34.8798 32.0196 36.8394 30.5741 38.2841C29.1287 39.7287 27.1687 40.5403 25.125 40.5403H9.70833C7.66468 40.5403 5.70466 39.7287 4.25919 38.2841C2.81372 36.8394 2.0011 34.8798 2 32.8361V19.3528C2 18.3306 2.40606 17.3503 3.12886 16.6275C3.85166 15.9047 4.83198 15.4986 5.85417 15.4986Z" stroke="black" stroke-width="4" stroke-linecap="round" stroke-linejoin="round"/>
<path d="M27.0521 20.3382V11.6466C27.0561 9.73948 26.4934 7.8742 25.4356 6.28741C24.3777 4.70062 22.8723 3.46386 21.1104 2.73405C19.6453 2.12705 18.053 1.8909 16.4748 2.04654C14.8966 2.20218 13.3811 2.7448 12.0628 3.6263C10.7444 4.5078 9.66396 5.70094 8.9171 7.09996C8.17025 8.49899 7.78011 10.0607 7.78125 11.6466V20.3382" stroke="black" stroke-width="4" stroke-linecap="round" stroke-linejoin="round"/>
</svg>
